v 0 -1.618033988749895 1
v 0 -1.618033988749895 -1
v -1.618033988749895 -1 0
v 1.618033988749895 -1 0
v 1 0 1.618033988749895
v 1 0 -1.618033988749895
v -1 0 -1.618033988749895
v -1 0 1.618033988749895
v 1.618033988749895 1 0
v -1.618033988749895 1 0
v 0 1.618033988749895 1
v 0 1.618033988749895 -1
vt 0.875 0.5334936490538904
vt 0.625 0.5334936490538904
vt 0.75 0.75
vt 0.875 0.9665063509461096
vt 0.625 0.9665063509461096
vt 0.5 0.75
vt 0.375 0.9665063509461096
vt 0.125 0.9665063509461096
vt 0.25 0.75
vt 0.375 0.5334936490538904
vt 0.125 0.5334936490538904
vt 0.125 0.4665063509461096
vt 0.375 0.4665063509461096
vt 0 0.25
vt 0.25 0.25
vt 0.125 0.033493649053890406
vt 0.375 0.033493649053890406
vt 0.5 0.25
vt 0.625 0.033493649053890406
vt 0.875 0.033493649053890406
vt 0.75 0.25
vt 1 0.25
vt 0.625 0.4665063509461096
vt 0.875 0.4665063509461096
vn -0.3568220898 -0.934172359 -0.0
vn 0.3568220898 -0.934172359 0.0
vn -0.5773502692 -0.5773502692 0.5773502692
vn 0.5773502692 -0.5773502692 0.5773502692
vn 0.0 -0.3568220898 0.934172359
vn -0.5773502692 -0.5773502692 -0.5773502692
vn 0.5773502692 -0.5773502692 -0.5773502692
vn 0.0 -0.3568220898 -0.934172359
vn -0.934172359 0.0 -0.3568220898
vn -0.934172359 -0.0 0.3568220898
vn 0.934172359 -0.0 0.3568220898
vn 0.934172359 -0.0 -0.3568220898
vn 0.0 0.3568220898 0.934172359
vn 0.5773502692 0.5773502692 0.5773502692
vn 0.0 0.3568220898 -0.934172359
vn 0.5773502692 0.5773502692 -0.5773502692
vn -0.5773502692 0.5773502692 -0.5773502692
vn -0.5773502692 0.5773502692 0.5773502692
vn 0.3568220898 0.934172359 0.0
vn -0.3568220898 0.934172359 0.0
f 1/10/1 3/9/1 2/11/1
f 1/19/2 2/20/2 4/21/2
f 1/10/3 8/6/3 3/9/3
f 1/19/4 4/21/4 5/18/4
f 1/10/5 5/2/5 8/6/5
f 2/3/6 3/4/6 7/5/6
f 2/20/7 6/22/7 4/21/7
f 2/3/8 7/5/8 6/6/8
f 3/13/9 10/15/9 7/18/9
f 3/12/10 8/14/10 10/15/10
f 4/21/11 9/23/11 5/18/11
f 4/21/12 6/22/12 9/24/12
f 5/2/13 11/3/13 8/6/13
f 5/2/14 9/1/14 11/3/14
f 6/6/15 7/5/15 12/7/15
f 6/6/16 12/7/16 9/9/16
f 7/18/17 10/15/17 12/17/17
f 8/14/18 11/16/18 10/15/18
f 9/9/19 12/7/19 11/8/19
f 10/15/20 11/16/20 12/17/20
